<svg width="67" height="68" viewBox="0 0 67 68" fill="none" xmlns="http://www.w3.org/2000/svg">
<path d="M41.8277 19.0697C41.8274 17.4227 41.3388 15.8127 40.4237 14.4434C39.5085 13.0741 38.2078 12.0069 36.6861 11.3768C35.1644 10.7466 33.49 10.5819 31.8747 10.9033C30.2593 11.2248 28.7756 12.018 27.611 13.1827C26.4465 14.3474 25.6535 15.8312 25.3323 17.4466C25.011 19.062 25.176 20.7363 25.8063 22.258C26.4367 23.7796 27.5041 25.0801 28.8735 25.9951C30.243 26.9101 31.853 27.3985 33.5 27.3985C35.708 27.3958 37.8248 26.5174 39.386 24.956C40.9472 23.3946 41.8253 21.2777 41.8277 19.0697ZM27.1448 19.0697C27.145 17.8128 27.5179 16.5842 28.2164 15.5392C28.9148 14.4943 29.9075 13.6799 31.0687 13.1991C32.23 12.7182 33.5078 12.5925 34.7405 12.8379C35.9732 13.0832 37.1055 13.6886 37.9942 14.5774C38.8829 15.4663 39.4881 16.5986 39.7332 17.8314C39.9783 19.0642 39.8524 20.3419 39.3714 21.5031C38.8903 22.6643 38.0757 23.6568 37.0307 24.3551C35.9856 25.0534 34.7569 25.4261 33.5 25.4261C31.8149 25.4241 30.1994 24.7538 29.0079 23.5621C27.8165 22.3705 27.1464 20.7548 27.1448 19.0697Z" fill="#FAFAFA"/>
<path d="M66.9347 66.435L58.895 45.358C58.8237 45.1714 58.6974 45.0109 58.5329 44.8976C58.3684 44.7843 58.1733 44.7235 57.9736 44.7235H42.7575C42.8505 44.5719 42.9429 44.4248 43.0359 44.2726C48.8907 34.5795 51.837 26.1002 51.7947 19.0738C51.7955 14.2216 49.8688 9.56776 46.4384 6.13615C43.0079 2.70453 38.3547 0.776213 33.5025 0.775391C28.6503 0.774569 23.9965 2.70131 20.5649 6.13176C17.1333 9.56221 15.205 14.2154 15.2041 19.0676C15.1619 26.1002 18.1082 34.5806 23.9629 44.2726C24.0559 44.4265 24.1483 44.5736 24.2413 44.7235H9.02532C8.82555 44.7235 8.63052 44.7843 8.46599 44.8976C8.30147 45.0109 8.17521 45.1714 8.1039 45.358L0.0653381 66.435C0.00806064 66.5844 -0.0119964 66.7454 0.0068999 66.9042C0.0257962 67.063 0.0830776 67.2149 0.173795 67.3466C0.264512 67.4783 0.385937 67.586 0.527578 67.6602C0.669218 67.7345 0.826816 67.7732 0.986753 67.7729H66.0132C66.1732 67.7732 66.3308 67.7345 66.4724 67.6602C66.6141 67.586 66.7355 67.4783 66.8262 67.3466C66.9169 67.2149 66.9742 67.063 66.9931 66.9042C67.012 66.7454 66.9919 66.5844 66.9347 66.435ZM17.1772 19.0693C17.1775 16.9257 17.6001 14.8032 18.4207 12.823C19.2414 10.8428 20.444 9.04356 21.96 7.5281C23.476 6.01265 25.2756 4.81063 27.2561 3.99067C29.2366 3.17071 31.3593 2.74888 33.5028 2.74925C35.6464 2.74962 37.7688 3.17218 39.7491 3.99283C41.7293 4.81347 43.5285 6.01611 45.044 7.53209C46.5594 9.04807 47.7615 10.8477 48.5814 12.8282C49.4014 14.8087 49.8232 16.9314 49.8228 19.0749C49.9074 33.0838 36.8103 50.3619 33.5 54.5051C30.1897 50.3635 17.0921 33.09 17.1772 19.0693ZM32.7488 56.703C32.8414 56.8118 32.9565 56.8993 33.0862 56.9592C33.2159 57.0192 33.3571 57.0502 33.5 57.0502C33.6429 57.0502 33.7841 57.0192 33.9138 56.9592C34.0435 56.8993 34.1586 56.8118 34.2512 56.703C36.8697 53.5132 39.2972 50.1713 41.5211 46.6948H57.2933L58.5557 50.0057L27.7343 60.9674L16.7483 46.6931H25.4778C27.7019 50.1702 30.1299 53.5127 32.7488 56.703ZM27.6999 63.0712H27.7055L46.0927 56.5339L53.2245 65.8005H20.031L27.6999 63.0712ZM9.70553 46.6931H14.2591L25.7793 61.6623L14.1458 65.7999H2.41819L9.70553 46.6931ZM55.7159 65.8005L48.0465 55.8357L59.2613 51.8474L64.5829 65.8005H55.7159Z" fill="#FAFAFA"/>
</svg>
