<svg width="62" height="62" viewBox="0 0 62 62" fill="none" xmlns="http://www.w3.org/2000/svg">
<path d="M31 0C13.9071 0 0 13.9059 0 31C0 48.0941 13.9071 62 31 62C48.0929 62 62 48.0941 62 31C62 13.9059 48.0929 0 31 0ZM31 59.6154C15.2222 59.6154 2.38462 46.7778 2.38462 31C2.38462 15.2222 15.2222 2.38462 31 2.38462C46.7778 2.38462 59.6154 15.2222 59.6154 31C59.6154 46.7778 46.7778 59.6154 31 59.6154Z" fill="#FAFAFA"/>
<path d="M45.9038 29.8077H32.1923V16.6923C32.1923 16.033 31.6581 15.5 31 15.5C30.3418 15.5 29.8077 16.033 29.8077 16.6923V29.8077H16.0961C15.438 29.8077 14.9038 30.3407 14.9038 31C14.9038 31.6593 15.438 32.1923 16.0961 32.1923H29.8077V46.5C29.8077 47.1593 30.3418 47.6923 31 47.6923C31.6581 47.6923 32.1923 47.1593 32.1923 46.5V32.1923H45.9038C46.562 32.1923 47.0961 31.6593 47.0961 31C47.0961 30.3407 46.562 29.8077 45.9038 29.8077Z" fill="#FAFAFA"/>
</svg>
