<svg width="82" height="80" viewBox="0 0 82 80" fill="none" xmlns="http://www.w3.org/2000/svg">
<path d="M80.6333 0H1.36667C0.611925 0 0 0.606695 0 1.35499V55.5544C0 56.3027 0.611925 56.9094 1.36667 56.9094H26.0446C26.0856 57.3606 26.1525 57.805 26.2332 58.2454L18.737 67.103C18.2515 67.6759 18.3265 68.5306 18.9044 69.012C19.0672 69.1476 19.2599 69.2437 19.4668 69.2926L27.7187 71.2465L31.093 78.9699C31.393 79.6566 32.1976 79.9723 32.8902 79.6749C33.0853 79.5912 33.2578 79.4635 33.3945 79.3019L40.8784 70.4593C40.9194 70.4593 40.959 70.4593 41 70.4593C41.041 70.4593 41.0806 70.4593 41.1216 70.4593L48.6055 79.3019C49.0903 79.8754 49.9524 79.9506 50.5308 79.4699C50.6936 79.3346 50.8224 79.1634 50.907 78.9699L54.2813 71.2465L62.5332 69.2926C63.2674 69.1192 63.721 68.3885 63.5461 67.6605C63.4967 67.4554 63.3998 67.2644 63.263 67.103L55.7668 58.2454C55.8475 57.805 55.9144 57.3606 55.9554 56.9094H80.6333C81.3881 56.9094 82 56.3027 82 55.5544V1.35499C82 0.606525 81.3881 0 80.6333 0ZM32.7221 75.8792L29.9546 69.5514C29.7836 69.1602 29.4368 68.8716 29.0184 68.7723L22.2534 67.1694L27.1598 61.3714C27.1857 61.431 27.2199 61.4852 27.2459 61.5448C27.4235 61.9513 27.6162 62.3375 27.8294 62.7209C27.9169 62.8808 28.0098 63.038 28.1028 63.1938C28.2905 63.5036 28.489 63.8071 28.6986 64.1044C28.8449 64.3117 28.9979 64.5109 29.1551 64.7141C29.3382 64.9445 29.5268 65.1694 29.725 65.3916C29.9232 65.6138 30.1541 65.8591 30.3824 66.084C30.5505 66.2507 30.724 66.4119 30.9017 66.5705C31.0493 66.706 31.1819 66.8482 31.3363 66.977C31.4907 67.1057 31.6356 67.1924 31.7832 67.3062C31.8502 67.3577 31.9076 67.4173 31.9759 67.4675C32.0989 67.5596 32.2287 67.6395 32.3545 67.7276C32.5513 67.8631 32.7453 68.0095 32.949 68.1341C33.3371 68.3807 33.7375 68.6056 34.1434 68.8116C34.2992 68.8902 34.4578 68.962 34.6163 69.0352C34.9807 69.2051 35.3475 69.3595 35.7165 69.4986C35.8231 69.5379 35.9283 69.5826 36.0349 69.6192C36.5525 69.7996 37.0801 69.9511 37.6148 70.0731L37.6298 70.0772L32.7221 75.8792ZM43.5666 67.462C42.9398 67.5933 42.3038 67.6763 41.6642 67.71H41.6464C41.4305 67.7208 41.2146 67.7357 40.9973 67.7357C40.78 67.7357 40.564 67.7208 40.3481 67.71H40.3303C39.6921 67.6761 39.0575 67.5936 38.432 67.4634L38.3172 67.4404C38.074 67.3875 37.8334 67.3225 37.5956 67.2547C37.4959 67.2263 37.3947 67.2005 37.2963 67.1694C37.1255 67.1165 36.9574 67.0542 36.7893 66.9946C36.6212 66.9349 36.4613 66.8767 36.3 66.8103C36.2003 66.7683 36.1019 66.7236 36.0035 66.6748C35.7793 66.5745 35.5566 66.4729 35.3393 66.3604L35.2299 66.3008C34.6665 66.002 34.1274 65.6604 33.6173 65.2792C33.333 65.0691 33.0706 64.8374 32.8123 64.6084C32.5069 64.3383 32.2152 64.0529 31.939 63.7534C31.8297 63.6369 31.7121 63.5258 31.6083 63.4052C31.2266 62.9601 30.8785 62.4877 30.5669 61.992C30.5204 61.9188 30.4808 61.8416 30.4302 61.7657C30.1396 61.2843 29.8839 60.783 29.6649 60.2657C29.6457 60.2196 29.6239 60.1736 29.6061 60.1302C29.364 59.5374 29.1693 58.9268 29.0239 58.3037C29.0239 58.2793 29.0048 58.2603 28.9979 58.2359C28.7994 57.3557 28.6995 56.4563 28.7 55.5544C28.6959 48.8193 34.1995 43.3563 40.9925 43.3521C47.7857 43.348 53.2957 48.8046 53.3 55.5395C53.3005 56.4518 53.1978 57.3611 52.9939 58.2507C52.987 58.2737 52.9734 58.294 52.9679 58.3171C52.8227 58.9395 52.6285 59.5498 52.3871 60.1422C52.3679 60.1897 52.3461 60.2371 52.3256 60.2777C52.1072 60.7918 51.8524 61.2899 51.563 61.7682C51.5179 61.8441 51.4769 61.924 51.4263 61.9999C51.1147 62.495 50.7671 62.9669 50.3863 63.4118C50.2838 63.5311 50.1676 63.6395 50.0596 63.756C49.7796 64.0581 49.4844 64.3462 49.1754 64.6191C48.9157 64.8481 48.6574 65.0798 48.3745 65.2885C48.0916 65.4971 47.8388 65.6733 47.5627 65.8481L47.5463 65.8576C47.299 66.0134 47.0461 66.157 46.7892 66.2925C46.7386 66.3196 46.6894 66.3481 46.6389 66.3738C46.4325 66.4809 46.2289 66.5771 46.0116 66.6706C45.9022 66.7193 45.7943 66.7695 45.6836 66.8142C45.5305 66.8779 45.3747 66.9334 45.2189 66.989C45.0631 67.0445 44.8704 67.1163 44.6927 67.1705C44.5984 67.2004 44.5028 67.2261 44.4071 67.2532C44.1652 67.3209 43.9219 67.3887 43.6759 67.4402L43.5666 67.462ZM59.7466 67.1653L52.9816 68.7682C52.5632 68.8675 52.2164 69.1561 52.0454 69.5474L49.2779 75.8792L44.3702 70.0812H44.3825C44.9193 69.9596 45.4487 69.8077 45.9678 69.626C46.0703 69.5907 46.1687 69.5487 46.2712 69.5121C46.6525 69.3685 47.0284 69.2113 47.3974 69.0365C47.5477 68.9674 47.698 68.901 47.8456 68.8251C48.2556 68.6138 48.6656 68.3848 49.0592 68.1341C49.2492 68.0149 49.431 67.8807 49.6155 67.752C49.7521 67.6585 49.8888 67.5731 50.0255 67.4742C50.0979 67.42 50.1621 67.3563 50.2332 67.3008C50.3699 67.1897 50.5284 67.0962 50.6678 66.9797C50.8072 66.8631 50.9493 66.7087 51.0942 66.5813C51.2746 66.4187 51.4523 66.2547 51.6245 66.0854C51.8495 65.8623 52.0673 65.6328 52.2777 65.397C52.4759 65.1748 52.6645 64.9499 52.849 64.7195C53.0062 64.5204 53.1592 64.313 53.3055 64.1098C53.5159 63.8144 53.7155 63.5109 53.9 63.202C53.9956 63.0448 54.0886 62.8862 54.1733 62.725C54.3856 62.3429 54.5792 61.9522 54.7541 61.5529C54.7787 61.4838 54.8143 61.4283 54.8402 61.3673L59.7466 67.1653ZM79.2667 54.1994H55.9636C55.222 46.0052 47.9206 39.9584 39.6557 40.6938C32.4185 41.3377 26.6831 47.0241 26.0336 54.1994H2.73333V2.70997H79.2667V54.1994Z" fill="#FAFAFA"/>
</svg>
