<svg width="35" height="51" viewBox="0 0 35 51" fill="none" xmlns="http://www.w3.org/2000/svg">
<path d="M17.7256 0.265686C9.40247 0.265686 0.451172 2.21502 0.451172 6.4936V43.8611C0.451172 48.1397 9.40247 50.089 17.7256 50.089C26.0487 50.089 35 48.1397 35 43.8611V6.4936C35 2.21502 26.0487 0.265686 17.7256 0.265686ZM31.8592 43.8378C31.6221 44.7019 26.9125 46.9751 17.7256 46.9751C8.53874 46.9751 3.82911 44.7019 3.59198 43.8611V41.4135C6.93379 43.0826 12.4538 43.8611 17.7256 43.8611C22.9974 43.8611 28.519 43.0748 31.8592 41.412V43.8378ZM31.8592 37.6098C31.6221 38.474 26.9125 40.7472 17.7256 40.7472C8.53874 40.7472 3.82911 38.474 3.59198 37.6332V35.1856C6.93379 36.8547 12.4538 37.6332 17.7256 37.6332C22.9974 37.6332 28.519 36.8469 31.8592 35.1841V37.6098ZM31.8592 31.3819C31.6221 32.246 26.9125 34.5192 17.7256 34.5192C8.53874 34.5192 3.82911 32.246 3.59198 31.4053V28.9577C6.93379 30.6268 12.4538 31.4053 17.7256 31.4053C22.9974 31.4053 28.519 30.619 31.8592 28.9562V31.3819ZM31.8592 25.154C31.6221 26.0181 26.9125 28.2913 17.7256 28.2913C8.53874 28.2913 3.82911 26.0181 3.59198 25.1774V22.7298C6.93379 24.3989 12.4538 25.1774 17.7256 25.1774C22.9974 25.1774 28.519 24.3911 31.8592 22.7282V25.154ZM31.8592 18.9261C31.6221 19.7902 26.9125 22.0634 17.7256 22.0634C8.53874 22.0634 3.82911 19.7902 3.59198 18.9494V16.5019C6.93379 18.1632 12.4538 18.9494 17.7256 18.9494C22.9974 18.9494 28.519 18.1632 31.8592 16.5003V18.9261ZM31.8592 12.6982C31.6221 13.5623 26.9125 15.8355 17.7256 15.8355C8.53874 15.8355 3.82911 13.5623 3.59198 12.7215V10.274C6.93379 11.9352 12.4538 12.7215 17.7256 12.7215C22.9974 12.7215 28.519 11.9352 31.8592 10.2724V12.6982ZM17.7256 9.60756C8.55288 9.60756 3.84481 7.3406 3.59198 6.52163V6.51229C3.84481 5.64505 8.55288 3.37965 17.7256 3.37965C26.8339 3.37965 31.5451 5.61235 31.8592 6.4936C31.5451 7.37486 26.8339 9.60756 17.7256 9.60756Z" fill="#FAFAFA"/>
</svg>
