<svg width="90" height="75" viewBox="0 0 90 75" fill="none" xmlns="http://www.w3.org/2000/svg">
<path d="M88.6817 45.2836C89.41 45.2836 90.0001 44.6935 90.0001 43.9652V42.9503C90.0001 38.9011 87.2865 35.2767 83.4014 34.1359L76.2534 32.0372C76.0474 31.8484 75.8099 31.6915 75.5475 31.5746L74.0569 30.9105C73.6598 30.7336 73.2391 30.644 72.8201 30.6387V27.5017C75.1567 25.7769 76.7883 23.1388 77.1671 20.1008C78.3486 19.767 79.2166 18.6792 79.2166 17.3927V7.95815C79.2166 5.74858 77.4844 3.93592 75.3065 3.8069C75.1274 1.67766 73.3372 0 71.1625 0H61.3744C57.0428 0 53.5191 3.52389 53.5191 7.85532V17.3927C53.5191 18.6794 54.3871 19.7671 55.5685 20.101C55.9479 23.1386 57.5793 25.7766 59.9156 27.5013V30.6334C59.5002 30.6413 59.084 30.7319 58.6923 30.9076L57.2304 31.564C56.9702 31.6809 56.7345 31.8374 56.5299 32.0254L49.3387 34.136C45.4532 35.2763 42.7393 38.9011 42.7393 42.9508V50.1102C41.8226 49.361 40.7556 48.7925 39.5902 48.4504C39.4743 48.4165 40.1499 48.5529 29.3258 46.4898V46.4613C31.036 46.1465 32.7254 45.7023 34.377 45.1289C38.0373 43.8582 40.4197 40.0929 38.5545 33.8711C37.9377 31.8138 37.6248 29.6817 37.6241 27.5288C37.6216 19.4766 31.0688 12.9259 23.0166 12.9259H23.0165C14.9644 12.9259 8.41167 19.4768 8.40903 27.5344C8.40833 29.6821 8.09544 31.8141 7.47879 33.8711C5.63291 40.03 7.94145 43.8392 11.6561 45.1289C13.3065 45.7019 14.9945 46.1458 16.7033 46.4606C5.92577 48.547 6.55665 48.4176 6.44362 48.4508C2.64973 49.564 0 53.1032 0 57.0574V69.5043C0 72.2567 2.22908 74.4722 4.96793 74.4722H4.97813C5.0008 74.4722 85.0096 74.3917 85.0323 74.3917C87.7717 74.3917 90.0002 72.1632 90.0002 69.4238V50.1285C90.0002 49.4002 89.4101 48.8101 88.6819 48.8101C87.9536 48.8101 87.3635 49.4002 87.3635 50.1285V53.1779H71.9533L69.6208 42.778L70.8828 40.5164C71.3836 40.4195 71.8631 40.1799 72.2595 39.7992L76.3109 35.854C76.5707 35.601 76.7709 35.3018 76.9056 34.9768L82.6589 36.6659C85.4287 37.4791 87.3633 40.0634 87.3633 42.9503V43.9652C87.3633 44.6935 87.9534 45.2836 88.6817 45.2836ZM56.1558 7.85514C56.1558 4.9776 58.4969 2.63655 61.3744 2.63655H71.1625C72.0016 2.63655 72.6845 3.31928 72.6845 4.15846C72.6845 5.41442 73.7062 6.43606 74.9621 6.43606H75.0578C75.8969 6.43606 76.5799 7.1188 76.5799 7.95798V12.8421H75.9354C75.5726 12.8421 75.2775 12.5469 75.2775 12.1841V11.1025C75.2775 8.77307 72.9902 7.14745 70.8044 7.86973C67.9444 8.81491 64.7946 8.81509 61.9309 7.86921C59.7256 7.14024 57.4584 8.77975 57.4584 11.1022V12.1841C57.4584 12.5469 57.163 12.8421 56.8002 12.8421H56.156V7.85514H56.1558ZM58.1376 19.2686C58.0771 18.3159 57.2843 17.5695 56.3327 17.5695C56.2349 17.5695 56.1556 17.4901 56.1556 17.3925V15.4788H56.7999C58.6168 15.4788 60.0947 14.0008 60.0947 12.1841V11.1022C60.0947 10.5801 60.6017 10.2074 61.1074 10.3739C64.501 11.4952 68.2385 11.4949 71.6318 10.3732C72.1292 10.208 72.6406 10.5783 72.6406 11.1024V12.1839C72.6406 14.0006 74.1186 15.4786 75.9353 15.4786H76.5797V17.3923C76.5797 17.4899 76.5002 17.5693 76.4025 17.5693C75.451 17.5693 74.6582 18.3157 74.5977 19.269C74.3248 23.5987 70.7096 26.9904 66.3675 26.9904C62.0257 26.9905 58.4107 23.5988 58.1376 19.2686ZM67.45 41.257H65.2629L64.414 39.799L66.4677 38.0836L68.3315 39.6772L67.45 41.257ZM69.2507 53.1779H63.4782L65.5603 43.8937H67.1684L69.2507 53.1779ZM66.4633 34.701L62.5525 31.7786V28.9352C63.7425 29.3827 65.0291 29.6271 66.3678 29.6271C67.7068 29.6271 68.9933 29.3827 70.1833 28.9352V31.8203L66.4633 34.701ZM59.7725 33.3129C59.9374 33.2385 60.1297 33.2599 60.2749 33.3682C61.5831 34.3457 62.4588 35.0002 64.352 36.4149L62.4571 37.9978C62.4476 38.0057 62.4367 38.011 62.4254 38.014C62.4198 38.0147 62.4142 38.0155 62.4085 38.0164C62.3883 38.0171 62.3681 38.0104 62.3523 37.9964L58.3251 33.9629L59.7725 33.3129ZM12.5211 42.6379C9.18844 41.4807 8.99544 37.9937 10.0049 34.6281C10.6951 32.3255 11.0454 29.9391 11.0461 27.5295C11.0484 20.9308 16.4183 15.5625 23.017 15.5625C29.6156 15.5625 34.9856 20.9308 34.9877 27.5349C34.9884 29.9387 35.3387 32.3251 36.029 34.6281C37.0384 37.9946 36.8452 41.4809 33.5127 42.6379C26.7444 44.9876 19.2894 44.9879 12.5211 42.6379ZM26.6892 46.8428V47.3089C25.2448 50.4167 20.7642 50.4037 19.3407 47.2806V46.8426C21.7544 47.0978 24.2172 47.1041 26.6892 46.8428ZM43.3969 71.4168C43.3969 71.5996 43.2533 71.7487 43.07 71.7561C43.0654 71.7562 43.0608 71.7564 43.0562 71.7568C43.0554 71.7568 43.0545 71.7568 43.0536 71.757C43.0439 71.7573 43.0339 71.7578 43.0235 71.7585L4.97268 71.8355H4.96811C3.68438 71.8355 2.63672 70.797 2.63672 69.5043V57.0574C2.63672 54.2853 4.48119 51.8021 7.12969 50.9973L17.2855 49.0332C19.8406 53.3504 26.1819 53.3373 28.7404 49.062L38.9064 50.9975C41.6294 51.8256 43.3969 54.3296 43.3969 57.0571V71.4168ZM45.3762 42.9506C45.3762 40.0634 47.311 37.4791 50.0815 36.6659L55.8802 34.964C56.0101 35.2776 56.2012 35.5673 56.448 35.8142L60.4973 39.8697C60.5017 39.8741 60.5062 39.8785 60.5106 39.8829C60.8879 40.2501 61.3447 40.4872 61.8251 40.5925L63.1053 42.7912L60.7761 53.1776H45.3762V42.9506ZM87.3633 55.8146V69.4238C87.3633 70.7091 86.3176 71.755 85.0321 71.755H46.0148C46.0273 71.6441 46.0336 71.5312 46.0336 71.4168V57.0572C46.0336 56.6401 46.0046 56.2253 45.9471 55.8148C51.734 55.8146 78.2493 55.8146 87.3633 55.8146ZM70.4263 37.9039C70.4106 37.9189 70.3909 37.9264 70.3711 37.9264C70.3607 37.9243 70.3503 37.9222 70.34 37.9203C70.3324 37.9171 70.3252 37.9129 70.3185 37.9073L68.5653 36.4082L72.4759 33.3802C72.6211 33.2673 72.8158 33.2441 72.9837 33.3188L74.4594 33.9764L70.4263 37.9039Z" fill="#FAFAFA"/>
</svg>
