<svg width="89" height="81" viewBox="0 0 89 81" fill="none" xmlns="http://www.w3.org/2000/svg">
<path d="M44.1854 80.4382C43.9735 80.4384 43.7645 80.3886 43.5757 80.293C43.3869 80.1974 43.2237 80.0587 43.0995 79.8883L30.9686 63.2216H12.396C9.10948 63.2181 5.95856 61.9214 3.63462 59.616C1.31069 57.3107 0.00354421 54.185 0 50.9247V12.2968C0.00354421 9.0366 1.31069 5.91089 3.63462 3.60555C5.95856 1.3002 9.10948 0.00351585 12.396 0H75.9748C79.2613 0.00351585 82.4123 1.3002 84.7362 3.60555C87.0601 5.91089 88.3673 9.0366 88.3708 12.2968V50.9247C88.3673 54.185 87.0601 57.3107 84.7362 59.616C82.4123 61.9214 79.2613 63.2181 75.9748 63.2216H57.4022L45.2713 79.8883C45.1471 80.0587 44.9839 80.1974 44.7951 80.293C44.6063 80.3886 44.3974 80.4384 44.1854 80.4382ZM12.396 2.65648C9.81948 2.65929 7.34929 3.67587 5.52741 5.48318C3.70552 7.29049 2.68074 9.74093 2.6779 12.2968V50.9247C2.68074 53.4806 3.70552 55.9311 5.52741 57.7384C7.34929 59.5457 9.81948 60.5623 12.396 60.5651H31.6542C31.866 60.5653 32.0748 60.6154 32.2633 60.7112C32.4519 60.807 32.6148 60.9459 32.7387 61.1163L44.1854 76.8413L55.6321 61.1163C55.756 60.9459 55.919 60.807 56.1075 60.7112C56.296 60.6154 56.5048 60.5653 56.7167 60.5651H75.9748C78.5513 60.5623 81.0215 59.5457 82.8434 57.7384C84.6653 55.9311 85.6901 53.4806 85.6929 50.9247V12.2968C85.6901 9.74093 84.6653 7.29049 82.8434 5.48318C81.0215 3.67587 78.5513 2.65929 75.9748 2.65648H12.396Z" fill="#FAFAFA"/>
<path d="M44.1939 52.5638C40.0507 52.5641 36.0004 51.3455 32.5553 49.0623C29.1103 46.779 26.4251 43.5336 24.8395 39.7364C23.2538 35.9392 22.8388 31.7609 23.6471 27.7298C24.4553 23.6987 26.4504 19.9959 29.3801 17.0896C32.3098 14.1833 36.0425 12.2042 40.1061 11.4024C44.1698 10.6006 48.3818 11.0123 52.2096 12.5852C56.0374 14.1582 59.309 16.8219 61.6106 20.2394C63.9123 23.6569 65.1407 27.6748 65.1404 31.7848C65.132 37.2932 62.9224 42.5735 58.996 46.4685C55.0695 50.3635 49.7466 52.5554 44.1939 52.5638ZM44.1939 13.661C40.5804 13.6607 37.0479 14.7235 34.0432 16.7148C31.0386 18.7061 28.6967 21.5365 27.3136 24.8482C25.9306 28.1599 25.5686 31.804 26.2734 35.3198C26.9782 38.8356 28.7182 42.065 31.2732 44.5998C33.8283 47.1346 37.0837 48.8609 40.6277 49.5603C44.1718 50.2597 47.8454 49.9009 51.1839 48.5292C54.5223 47.1575 57.3758 44.8345 59.3834 41.854C61.391 38.8735 62.4625 35.3694 62.4625 31.7848C62.4551 26.9806 60.528 22.3752 57.1036 18.978C53.6793 15.5807 49.0369 13.6687 44.1939 13.661Z" fill="#FAFAFA"/>
<path d="M54.1161 27.0259H52.2188C51.8637 27.0259 51.5232 26.886 51.2721 26.6369C51.0209 26.3878 50.8799 26.05 50.8799 25.6977C50.8799 25.3454 51.0209 25.0076 51.2721 24.7585C51.5232 24.5094 51.8637 24.3694 52.2188 24.3694H54.1161C54.4712 24.3694 54.8118 24.5094 55.0629 24.7585C55.314 25.0076 55.4551 25.3454 55.4551 25.6977C55.4551 26.05 55.314 26.3878 55.0629 26.6369C54.8118 26.886 54.4712 27.0259 54.1161 27.0259Z" fill="#FAFAFA"/>
<path d="M36.1513 27.0259H34.254C33.8989 27.0259 33.5583 26.886 33.3072 26.6369C33.0561 26.3878 32.915 26.05 32.915 25.6977C32.915 25.3454 33.0561 25.0076 33.3072 24.7585C33.5583 24.5094 33.8989 24.3694 34.254 24.3694H36.1513C36.5064 24.3694 36.847 24.5094 37.0981 24.7585C37.3492 25.0076 37.4902 25.3454 37.4902 25.6977C37.4902 26.05 37.3492 26.3878 37.0981 26.6369C36.847 26.886 36.5064 27.0259 36.1513 27.0259Z" fill="#FAFAFA"/>
<path d="M44.3073 43.6727C42.5683 43.6677 40.8715 43.1409 39.4398 42.1617C38.0082 41.1824 36.9086 39.7964 36.2856 38.1858C36.1598 37.8562 36.171 37.4906 36.3169 37.1692C36.4628 36.8479 36.7314 36.5972 37.0636 36.4723C37.3958 36.3475 37.7644 36.3586 38.0883 36.5033C38.4122 36.648 38.6649 36.9145 38.7908 37.244C39.1978 38.3166 39.9136 39.2468 40.8494 39.9189C41.7851 40.5911 42.8993 40.9754 44.0535 41.0243C45.2078 41.0731 46.351 40.7842 47.341 40.1936C48.331 39.6029 49.1241 38.7366 49.6216 37.7023C49.7843 37.3997 50.0586 37.1712 50.3872 37.0647C50.7159 36.9582 51.0733 36.9819 51.3847 37.1308C51.6961 37.2798 51.9373 37.5425 52.0579 37.8639C52.1785 38.1853 52.1691 38.5405 52.0317 38.8552C51.3272 40.2945 50.2299 41.5089 48.8645 42.3605C47.499 43.2121 45.9202 43.6667 44.3073 43.6727Z" fill="#FAFAFA"/>
</svg>
