<svg width="119" height="119" viewBox="0 0 119 119" fill="none" xmlns="http://www.w3.org/2000/svg">
<path d="M33.5963 76.4033C29.585 75.671 25.7528 74.2844 22.2056 72.2823C21.5455 71.9095 20.7199 72.0062 20.164 72.5217C17.0407 75.4156 12.975 77.0093 8.71582 77.0093C7.93163 77.0093 7.15487 76.956 6.38835 76.8503C9.76218 74.497 12.3851 71.1488 13.8382 67.2366C14.0687 66.6156 13.9274 65.9174 13.4735 65.4351C7.03309 58.5912 3.48633 49.6465 3.48633 40.2478C3.48633 19.9774 19.9774 3.48633 40.2478 3.48633C58.0127 3.48633 73.2199 16.1494 76.4075 33.5963C76.5804 34.5432 77.4897 35.1708 78.4356 34.9979C79.3828 34.8247 80.0101 33.9169 79.8371 32.9697C76.3466 13.8658 59.6971 0 40.2478 0C18.0552 0 0 18.055 0 40.2478C0 50.1618 3.60486 59.6153 10.174 66.9935C8.4067 70.9707 5.14396 74.1419 1.0889 75.7835C0.43091 76.0501 0 76.6892 0 77.3993C0 78.1096 0.43091 78.7487 1.08913 79.0151C3.51538 79.9973 6.08132 80.4954 8.71582 80.4954C13.4328 80.4954 17.9534 78.8756 21.5792 75.9099C25.1569 77.7867 28.9828 79.105 32.9704 79.8327C33.9164 80.0059 34.8252 79.3781 34.9983 78.431C35.171 77.4841 34.5435 76.576 33.5963 76.4033Z" fill="#FAFAFA"/>
<path d="M117.911 114.288C113.856 112.646 110.593 109.475 108.826 105.498C115.395 98.1197 119 88.6664 119 78.7522C119 56.5596 100.945 38.5044 78.7522 38.5044C56.5596 38.5044 38.5046 56.5594 38.5046 78.7522C38.5046 100.945 56.5596 119 78.7522 119C85.2612 119 91.6888 117.418 97.4206 114.414C101.047 117.38 105.567 119 110.284 119C112.919 119 115.485 118.502 117.911 117.519C118.569 117.253 119 116.614 119 115.904C119 115.194 118.569 114.554 117.911 114.288ZM110.284 115.514C106.026 115.514 101.96 113.92 98.8358 111.026C98.5055 110.72 98.0802 110.561 97.6507 110.561C97.3573 110.561 97.0622 110.635 96.7942 110.786C91.316 113.879 85.0769 115.514 78.7522 115.514C58.482 115.514 41.991 99.0224 41.991 78.7522C41.991 58.482 58.482 41.9907 78.7522 41.9907C99.0226 41.991 115.514 58.482 115.514 78.7522C115.514 88.1509 111.967 97.0958 105.526 103.939C105.072 104.422 104.931 105.12 105.162 105.741C106.615 109.653 109.238 113.001 112.612 115.354C111.845 115.46 111.068 115.514 110.284 115.514Z" fill="#FAFAFA"/>
<path d="M89.4613 66.5503C82.7331 66.5503 77.2591 72.0241 77.2591 78.7524C77.2591 85.4808 82.7331 90.9546 89.4613 90.9546C96.1894 90.9546 101.663 85.4808 101.663 78.7524C101.663 72.0241 96.1894 66.5503 89.4613 66.5503ZM89.4613 87.4683C84.6553 87.4683 80.7455 83.5585 80.7455 78.7524C80.7455 73.9464 84.6553 70.0366 89.4613 70.0366C94.2673 70.0366 98.1771 73.9464 98.1771 78.7524C98.1771 83.5585 94.2673 87.4683 89.4613 87.4683Z" fill="#FAFAFA"/>
<path d="M72.0296 66.5503C71.0667 66.5503 70.2865 67.3308 70.2865 68.2935V83.6196L59.0189 67.3029C58.5854 66.6751 57.7945 66.4025 57.0656 66.6293C56.3374 66.8564 55.8412 67.5307 55.8412 68.2935V89.2115C55.8412 90.1741 56.6215 90.9546 57.5844 90.9546C58.5473 90.9546 59.3275 90.1741 59.3275 89.2115V73.8853L70.5951 90.202C70.9268 90.6822 71.4679 90.9548 72.0299 90.9548C72.2026 90.9548 72.3771 90.929 72.5484 90.8758C73.2766 90.6487 73.7728 89.9745 73.7728 89.2117V68.2937C73.7728 67.3308 72.9926 66.5503 72.0296 66.5503Z" fill="#FAFAFA"/>
</svg>
