<svg width="72" height="72" viewBox="0 0 72 72" fill="none" xmlns="http://www.w3.org/2000/svg">
<g clip-path="url(#clip0)">
<path d="M32.9992 68.9531C14.8047 68.9531 0 54.1489 0 35.9545C0 17.76 14.8047 2.95532 32.9992 2.95532C39.326 2.95532 45.4814 4.75812 50.8003 8.17202C51.8445 8.84436 52.1505 10.2363 51.4781 11.2832C50.8036 12.3302 49.4144 12.6329 48.3675 11.9611C43.7775 9.0119 38.4619 7.45518 32.9992 7.45518C17.2854 7.45518 4.49986 20.2407 4.49986 35.9545C4.49986 51.6677 17.2854 64.4532 32.9992 64.4532C48.7124 64.4532 61.4979 51.6677 61.4979 35.9545C61.4979 35.0152 61.4529 34.0852 61.3661 33.1706C61.2463 31.9314 62.1521 30.8334 63.388 30.7136C64.63 30.5994 65.7248 31.4997 65.8451 32.7356C65.9467 33.7946 65.9978 34.8685 65.9978 35.9545C65.9978 54.1489 51.1936 68.9531 32.9992 68.9531Z" fill="#FAFAFA"/>
<path d="M36.7484 43.4542C36.1728 43.4542 35.5965 43.235 35.1587 42.7945L21.6592 29.2949C20.7803 28.4155 20.7803 26.9906 21.6592 26.1117C22.538 25.2328 23.9629 25.2328 24.8418 26.1117L36.7517 38.0216L64.7273 10.5C65.6067 9.62114 67.2785 8.91906 68.1574 9.79794C69.0362 10.6768 69.0362 12.1212 68.1574 13.0001L38.3414 42.7972C37.9003 43.235 37.3246 43.4542 36.7484 43.4542Z" fill="#FAFAFA"/>
</g>
<defs>
<clipPath id="clip0">
<rect width="72" height="72" fill="white"/>
</clipPath>
</defs>
</svg>
