<svg width="105" height="105" viewBox="0 0 105 105" fill="none" xmlns="http://www.w3.org/2000/svg">
<path d="M70.957 65.4199C69.8246 65.4199 68.9062 66.3381 68.9062 67.4707V81.6211C68.9062 87.2751 64.3064 91.875 58.6523 91.875H36.5105C35.3782 91.875 34.4605 92.7923 34.4597 93.9243L34.4568 98.0017L29.562 93.1071C29.2452 92.3797 28.52 91.875 27.6812 91.875H14.3555C8.70146 91.875 4.10156 87.2751 4.10156 81.6211V50.0391C4.10156 44.3851 8.70146 39.7852 14.3555 39.7852H35.0684C36.2008 39.7852 37.1191 38.867 37.1191 37.7344C37.1191 36.6017 36.2008 35.6836 35.0684 35.6836H14.3555C6.43986 35.6836 0 42.1235 0 50.0391V81.6211C0 89.5367 6.43986 95.9766 14.3555 95.9766H26.631L35.0538 104.399C35.4461 104.792 35.9705 105 36.5043 105C36.7683 105 37.0346 104.949 37.2879 104.844C38.0543 104.527 38.5541 103.78 38.5547 102.951L38.5596 95.9766H58.6523C66.5679 95.9766 73.0078 89.5367 73.0078 81.6211V67.4707C73.0078 66.3381 72.0895 65.4199 70.957 65.4199Z" fill="#FAFAFA"/>
<path d="M75.1929 0H70.0026C53.5668 0 40.1953 13.3715 40.1953 29.8073C40.1953 46.2431 53.5668 59.6144 70.0024 59.6144H75.1927C77.758 59.6144 80.2971 59.2885 82.758 58.6445L90.4253 66.3075C90.8176 66.6994 91.3418 66.9078 91.8754 66.9078C92.1398 66.9078 92.4064 66.8567 92.66 66.7515C93.4262 66.434 93.9258 65.6863 93.9258 64.857V52.992C97.172 50.3631 99.8685 47.0423 101.761 43.3324C103.91 39.1189 105 34.5684 105 29.8073C105 13.3715 91.6285 0 75.1929 0ZM90.641 50.3539C90.1269 50.7412 89.8242 51.3479 89.8242 51.992V59.908L84.8058 54.8922C84.4153 54.5022 83.8915 54.292 83.3559 54.292C83.1549 54.292 82.9518 54.3217 82.7537 54.3826C80.3127 55.1328 77.7689 55.513 75.1929 55.513H70.0026C55.8282 55.513 44.2969 43.9815 44.2969 29.8073C44.2969 15.6331 55.8284 4.10156 70.0026 4.10156H75.1929C89.3671 4.10156 100.898 15.6331 100.898 29.8073C100.898 37.9552 97.1599 45.4443 90.641 50.3539Z" fill="#FAFAFA"/>
<path d="M81.8329 22.4401C81.537 18.1468 78.0761 14.6859 73.7826 14.3899C71.3487 14.2228 69.026 15.0437 67.2482 16.7034C65.4948 18.3402 64.4893 20.6539 64.4893 23.0514C64.4893 24.1841 65.4076 25.1022 66.5401 25.1022C67.6725 25.1022 68.5909 24.1841 68.5909 23.0514C68.5909 21.7678 69.1081 20.5782 70.0469 19.7019C70.9849 18.8264 72.2109 18.3931 73.5008 18.4821C75.7624 18.6379 77.5854 20.4609 77.7412 22.7223C77.8987 25.0062 76.4002 27.0246 74.1784 27.5217C72.3782 27.9245 71.1211 29.4888 71.1211 31.3257V36.2527C71.1211 37.3854 72.0394 38.3035 73.1719 38.3035C74.3045 38.3035 75.2227 37.3854 75.2225 36.2527V31.4896C79.3548 30.4912 82.1272 26.71 81.8329 22.4401Z" fill="#FAFAFA"/>
<path d="M74.6218 42.9148C74.2403 42.5334 73.7112 42.314 73.1719 42.314C72.6325 42.314 72.1034 42.5334 71.722 42.9148C71.3405 43.2963 71.1211 43.8254 71.1211 44.3647C71.1211 44.9062 71.3407 45.4353 71.722 45.8167C72.1034 46.1981 72.6325 46.4155 73.1719 46.4155C73.7112 46.4155 74.2403 46.1981 74.6218 45.8167C75.0032 45.4332 75.2227 44.9062 75.2227 44.3647C75.2227 43.8254 75.003 43.2963 74.6218 42.9148Z" fill="#FAFAFA"/>
<path d="M56.3965 63.5742H13.125C11.9926 63.5742 11.0742 64.4924 11.0742 65.625C11.0742 66.7576 11.9926 67.6758 13.125 67.6758H56.3965C57.5291 67.6758 58.4473 66.7576 58.4473 65.625C58.4473 64.4924 57.5289 63.5742 56.3965 63.5742Z" fill="#FAFAFA"/>
<path d="M57.8462 75.6595C57.4649 75.278 56.9358 75.0586 56.3965 75.0586C55.8571 75.0586 55.328 75.278 54.9466 75.6595C54.5649 76.0409 54.3457 76.57 54.3457 77.1094C54.3457 77.6487 54.5651 78.1778 54.9466 78.5593C55.328 78.9407 55.8571 79.1602 56.3965 79.1602C56.9358 79.1602 57.4649 78.9407 57.8462 78.5593C58.2278 78.1778 58.4473 77.6508 58.4473 77.1094C58.4473 76.57 58.2276 76.0409 57.8462 75.6595Z" fill="#FAFAFA"/>
<path d="M48.3301 75.0586H13.125C11.9926 75.0586 11.0742 75.9767 11.0742 77.1094C11.0742 78.242 11.9926 79.1602 13.125 79.1602H48.3301C49.4628 79.1602 50.3809 78.242 50.3809 77.1094C50.3809 75.9767 49.4626 75.0586 48.3301 75.0586Z" fill="#FAFAFA"/>
<path d="M43.0664 52.0898H13.125C11.9926 52.0898 11.0742 53.008 11.0742 54.1406C11.0742 55.2733 11.9926 56.1914 13.125 56.1914H43.0664C44.1991 56.1914 45.1172 55.2733 45.1172 54.1406C45.1172 53.008 44.1988 52.0898 43.0664 52.0898Z" fill="#FAFAFA"/>
</svg>
