<svg width="44" height="81" viewBox="0 0 44 81" fill="none" xmlns="http://www.w3.org/2000/svg">
<path d="M37.5294 0H6.47059C4.75507 0.00192671 3.11037 0.684266 1.89732 1.89732C0.684266 3.11037 0.00192671 4.75507 0 6.47059V73.7647C0.00192671 75.4802 0.684266 77.1249 1.89732 78.338C3.11037 79.551 4.75507 80.2334 6.47059 80.2353H37.5294C39.2449 80.2334 40.8896 79.551 42.1027 78.338C43.3157 77.1249 43.9981 75.4802 44 73.7647V6.47059C43.9981 4.75507 43.3157 3.11037 42.1027 1.89732C40.8896 0.684266 39.2449 0.00192671 37.5294 0ZM30.7744 2.58824L29.998 6.47059H14.0022L13.2257 2.58824H30.7744ZM41.4118 73.7647C41.4106 74.794 41.0012 75.7808 40.2734 76.5087C39.5455 77.2365 38.5587 77.6459 37.5294 77.6471H6.47059C5.44128 77.6459 4.45446 77.2365 3.72663 76.5087C2.99879 75.7808 2.58939 74.794 2.58824 73.7647V6.47059C2.58939 5.44128 2.99879 4.45446 3.72663 3.72663C4.45446 2.99879 5.44128 2.58939 6.47059 2.58824H10.586L11.6721 8.01851C11.7308 8.31188 11.8893 8.57586 12.1207 8.76552C12.3521 8.95519 12.642 9.05884 12.9412 9.05882H31.0588C31.358 9.05884 31.6479 8.95519 31.8793 8.76552C32.1107 8.57586 32.2692 8.31188 32.3279 8.01851L33.414 2.58824H37.5294C38.5587 2.58939 39.5455 2.99879 40.2734 3.72663C41.0012 4.45446 41.4106 5.44128 41.4118 6.47059V73.7647Z" fill="#FAFAFA"/>
<path d="M14.2353 72.4707H6.4706C6.12738 72.4707 5.79821 72.607 5.55552 72.8497C5.31283 73.0924 5.17648 73.4216 5.17648 73.7648C5.17648 74.108 5.31283 74.4372 5.55552 74.6799C5.79821 74.9226 6.12738 75.0589 6.4706 75.0589H14.2353C14.5785 75.0589 14.9077 74.9226 15.1504 74.6799C15.3931 74.4372 15.5294 74.108 15.5294 73.7648C15.5294 73.4216 15.3931 73.0924 15.1504 72.8497C14.9077 72.607 14.5785 72.4707 14.2353 72.4707Z" fill="#FAFAFA"/>
<path d="M19.4118 72.4707H18.1176C17.7744 72.4707 17.4452 72.607 17.2026 72.8497C16.9599 73.0924 16.8235 73.4216 16.8235 73.7648C16.8235 74.108 16.9599 74.4372 17.2026 74.6799C17.4452 74.9226 17.7744 75.0589 18.1176 75.0589H19.4118C19.755 75.0589 20.0841 74.9226 20.3268 74.6799C20.5695 74.4372 20.7059 74.108 20.7059 73.7648C20.7059 73.4216 20.5695 73.0924 20.3268 72.8497C20.0841 72.607 19.755 72.4707 19.4118 72.4707Z" fill="#FAFAFA"/>
<path d="M34.7631 47.3654L30.6314 43.232C30.0766 42.68 29.3336 42.3758 28.5396 42.3758C27.7134 42.3758 26.9332 42.7011 26.3434 43.2914L24.7351 44.8993C23.4854 44.2046 21.8243 43.2493 20.0998 41.5247C18.3773 39.8016 17.4218 38.1455 16.7236 36.889L18.3334 35.2804C19.5303 34.081 19.5548 32.1569 18.3882 30.9913L14.2574 26.8604C13.7041 26.3056 12.9611 26 12.1651 26C11.3573 26 10.5931 26.311 10.0067 26.8771C9.65192 27.1628 7.87158 28.7344 7.20805 31.9756C6.27903 36.5122 8.41355 40.8772 14.5756 47.0417C21.4592 53.9231 27.3356 54.458 28.9728 54.458C29.3136 54.458 29.5192 54.437 29.5741 54.4306C32.7844 54.0543 33.9338 52.6286 34.7731 51.5876C35.8606 50.2384 35.8568 48.4632 34.7631 47.3654ZM33.3921 50.4742C32.6032 51.4527 31.8582 52.3767 29.3678 52.6687C29.3665 52.6688 29.2302 52.6841 28.9728 52.6841C27.5081 52.6841 22.2313 52.1867 15.83 45.7874C10.1474 40.1025 8.15291 36.2039 8.94582 32.3313C9.52456 29.5043 11.0611 28.3027 11.1208 28.257L11.1738 28.2179L11.2202 28.1713C11.4767 27.915 11.8122 27.7738 12.165 27.7738C12.4862 27.7738 12.7832 27.8942 13.0022 28.1139L17.134 32.2458C17.6094 32.7207 17.584 33.5199 17.0783 34.0267L15.2577 35.8457L15.2278 35.8771C14.7534 36.3996 14.8092 37.1059 15.0705 37.5658C15.8246 38.9267 16.8576 40.7905 18.8452 42.7787C20.8263 44.7597 22.6874 45.7919 24.0445 46.5446C24.1803 46.6208 24.4608 46.7488 24.812 46.7488C25.2266 46.7488 25.6072 46.5733 25.889 46.2534L27.5976 44.5453C27.8527 44.2901 28.1871 44.1495 28.5394 44.1495C28.8613 44.1495 29.1599 44.2703 29.3784 44.4876L33.5073 48.6183C34.0318 49.1447 33.8152 49.9494 33.3921 50.4742Z" fill="#FAFAFA"/>
<path d="M24.3182 30.3462C25.8422 30.5216 27.6366 31.4447 28.8896 32.6979C30.1544 33.9626 31.0797 35.7752 31.2468 37.3157C31.2961 37.7702 31.6805 38.107 32.1275 38.107C32.1594 38.107 32.1918 38.1052 32.2242 38.1018C32.7112 38.0489 33.0631 37.6114 33.0103 37.1244C32.7989 35.1771 31.7006 33.0004 30.144 31.4436C28.6019 29.9015 26.4474 28.8058 24.521 28.5841C24.0346 28.5277 23.5946 28.8773 23.5386 29.3638C23.4825 29.8503 23.8315 30.2902 24.3182 30.3462Z" fill="#FAFAFA"/>
<path d="M23.4896 34.0612C24.3139 34.1562 25.4546 34.7676 26.2018 35.5148C26.9555 36.2686 27.568 37.4202 27.6582 38.2533C27.7076 38.7079 28.0919 39.0446 28.5389 39.0446C28.5708 39.0446 28.6031 39.0429 28.6355 39.0394C29.1225 38.9866 29.4745 38.549 29.4217 38.0621C29.2675 36.6397 28.3232 35.1278 27.4559 34.2605C26.5964 33.4009 25.0993 32.4611 23.6924 32.299C23.2053 32.2423 22.7659 32.592 22.7098 33.0785C22.6539 33.5652 23.003 34.0052 23.4896 34.0612Z" fill="#FAFAFA"/>
</svg>
