<svg width="74" height="74" viewBox="0 0 74 74" fill="none" xmlns="http://www.w3.org/2000/svg">
<path d="M10.9491 37.729H15.816V40.1624H10.9491V37.729Z" fill="#FAFAFA"/>
<path d="M18.2494 37.729H36.5001V40.1624H18.2494V37.729Z" fill="#FAFAFA"/>
<path d="M10.9491 45.0293H15.816V47.4627H10.9491V45.0293Z" fill="#FAFAFA"/>
<path d="M10.9491 52.3291H15.816V54.7625H10.9491V52.3291Z" fill="#FAFAFA"/>
<path d="M10.9491 59.6294H15.816V62.0628H10.9491V59.6294Z" fill="#FAFAFA"/>
<path d="M71.7859 40.1623H70.5692C66.6219 40.1525 62.7826 38.8727 59.6188 36.5122L56.6987 34.3221C56.4889 34.1623 56.2325 34.0757 55.9687 34.0757C55.7049 34.0757 55.4485 34.1623 55.2387 34.3221L53.5353 35.5996V10.9613C53.5324 9.99406 53.1469 9.06732 52.463 8.38341C51.7791 7.6995 50.8523 7.31401 49.8851 7.31112H39.9324C39.6799 6.60209 39.215 5.98809 38.6011 5.55267C37.9872 5.11726 37.254 4.88157 36.5013 4.8777H33.6542C33.1526 3.45174 32.2207 2.21665 30.9871 1.34295C29.7536 0.469241 28.2793 0 26.7676 0C25.256 0 23.7817 0.469241 22.5481 1.34295C21.3146 2.21665 20.3827 3.45174 19.8811 4.8777H17.034C16.2813 4.88157 15.5481 5.11726 14.9342 5.55267C14.3202 5.98809 13.8554 6.60209 13.6028 7.31112H3.65013C2.68295 7.31401 1.7562 7.6995 1.07229 8.38341C0.388383 9.06732 0.00288858 9.99406 0 10.9613V69.3634C0.00288858 70.3306 0.388383 71.2573 1.07229 71.9412C1.7562 72.6251 2.68295 73.0106 3.65013 73.0135H49.8851C50.4362 73.0099 50.9794 72.8823 51.4744 72.6401C51.9694 72.3979 52.4035 72.0472 52.7444 71.6143L55.4455 72.8918C55.6083 72.9718 55.7873 73.0134 55.9687 73.0134C56.1501 73.0134 56.3291 72.9718 56.4919 72.8918L67.1746 67.8182C68.9365 66.8915 70.4112 65.5002 71.4385 63.7951C72.4659 62.0899 73.0068 60.136 73.0026 58.1453V41.379C73.0026 41.0563 72.8745 40.7469 72.6463 40.5187C72.4181 40.2905 72.1086 40.1623 71.7859 40.1623ZM40.1515 9.74454H49.8851C50.2078 9.74454 50.5173 9.87273 50.7455 10.1009C50.9737 10.3291 51.1019 10.6386 51.1019 10.9613V37.3517C50.3234 37.8372 49.5101 38.2642 48.6684 38.6293V13.3947C48.6684 13.072 48.5402 12.7625 48.3121 12.5343C48.0839 12.3062 47.7744 12.178 47.4517 12.178H40.1515V9.74454ZM15.8172 8.52783C15.8172 8.20514 15.9454 7.89566 16.1736 7.66748C16.4018 7.43931 16.7113 7.31112 17.034 7.31112H20.8058C21.087 7.31398 21.3603 7.21814 21.5782 7.0403C21.796 6.86245 21.9446 6.61385 21.9981 6.33775C22.2215 5.23756 22.8184 4.24844 23.6876 3.53797C24.5569 2.82751 25.645 2.4394 26.7676 2.4394C27.8903 2.4394 28.9784 2.82751 29.8476 3.53797C30.7169 4.24844 31.3137 5.23756 31.5371 6.33775C31.5906 6.61385 31.7393 6.86245 31.9571 7.0403C32.175 7.21814 32.4483 7.31398 32.7295 7.31112H36.5013C36.824 7.31112 37.1335 7.43931 37.3617 7.66748C37.5898 7.89566 37.718 8.20514 37.718 8.52783V13.3947H15.8172V8.52783ZM14.6005 15.8281H38.9347C39.2574 15.8281 39.5669 15.6999 39.7951 15.4717C40.0233 15.2436 40.1515 14.9341 40.1515 14.6114H46.235V39.481C44.6508 39.926 43.0137 40.1552 41.3682 40.1623H40.1515C39.8288 40.1623 39.5193 40.2905 39.2911 40.5187C39.0629 40.7469 38.9347 41.0563 38.9347 41.379V45.0292H18.2507V47.4626H38.9347V52.3294H18.2507V54.7628H38.9347V58.1453C38.9365 58.6416 38.969 59.1374 39.0321 59.6297H18.2507V62.0631H39.6769C40.2019 63.4219 40.9918 64.6627 42.0009 65.7132H7.30026V14.6114H13.3838C13.3838 14.9341 13.512 15.2436 13.7402 15.4717C13.9684 15.6999 14.2778 15.8281 14.6005 15.8281ZM49.8851 70.5801H3.65013C3.32744 70.5801 3.01797 70.4519 2.78979 70.2237C2.56161 69.9955 2.43342 69.6861 2.43342 69.3634V10.9613C2.43342 10.6386 2.56161 10.3291 2.78979 10.1009C3.01797 9.87273 3.32744 9.74454 3.65013 9.74454H13.3838V12.178H6.08355C5.76086 12.178 5.45139 12.3062 5.22321 12.5343C4.99503 12.7625 4.86684 13.072 4.86684 13.3947V66.93C4.86684 67.2526 4.99503 67.5621 5.22321 67.7903C5.45139 68.0185 5.76086 68.1467 6.08355 68.1467H45.4563L50.3475 70.4706C50.202 70.5369 50.0449 70.5741 49.8851 70.5801ZM70.5692 58.1453C70.5737 59.6849 70.158 61.1965 69.3668 62.5172C68.5756 63.8379 67.4391 64.9177 66.0796 65.6402L55.9687 70.4462L45.8822 65.6524C44.5182 64.9299 43.3771 63.8491 42.5817 62.5263C41.7863 61.2035 41.3668 59.6888 41.3682 58.1453V42.5957C45.8422 42.587 50.1942 41.1363 53.7786 38.4589L55.9687 36.8164L58.1588 38.4589C61.7432 41.1363 66.0952 42.587 70.5692 42.5957V58.1453Z" fill="#FAFAFA"/>
<path d="M34.0666 23.1286H30.4165V19.4784C30.4165 19.1557 30.2883 18.8463 30.0601 18.6181C29.832 18.3899 29.5225 18.2617 29.1998 18.2617H24.333C24.0103 18.2617 23.7008 18.3899 23.4726 18.6181C23.2444 18.8463 23.1162 19.1557 23.1162 19.4784V23.1286H19.4661C19.1434 23.1286 18.8339 23.2567 18.6058 23.4849C18.3776 23.7131 18.2494 24.0226 18.2494 24.3453V29.2121C18.2494 29.5348 18.3776 29.8443 18.6058 30.0725C18.8339 30.3006 19.1434 30.4288 19.4661 30.4288H23.1162V34.079C23.1162 34.4017 23.2444 34.7111 23.4726 34.9393C23.7008 35.1675 24.0103 35.2957 24.333 35.2957H29.1998C29.5225 35.2957 29.832 35.1675 30.0601 34.9393C30.2883 34.7111 30.4165 34.4017 30.4165 34.079V30.4288H34.0666C34.3893 30.4288 34.6988 30.3006 34.927 30.0725C35.1552 29.8443 35.2833 29.5348 35.2833 29.2121V24.3453C35.2833 24.0226 35.1552 23.7131 34.927 23.4849C34.6988 23.2567 34.3893 23.1286 34.0666 23.1286ZM32.8499 27.9954H29.1998C28.8771 27.9954 28.5676 28.1236 28.3395 28.3518C28.1113 28.5799 27.9831 28.8894 27.9831 29.2121V32.8622H25.5497V29.2121C25.5497 28.8894 25.4215 28.5799 25.1933 28.3518C24.9651 28.1236 24.6556 27.9954 24.333 27.9954H20.6828V25.562H24.333C24.6556 25.562 24.9651 25.4338 25.1933 25.2056C25.4215 24.9774 25.5497 24.668 25.5497 24.3453V20.6951H27.9831V24.3453C27.9831 24.668 28.1113 24.9774 28.3395 25.2056C28.5676 25.4338 28.8771 25.562 29.1998 25.562H32.8499V27.9954Z" fill="#FAFAFA"/>
<path d="M67.1003 44.7614C63.3269 44.1885 59.7534 42.6923 56.6975 40.4056C56.4877 40.2458 56.2312 40.1592 55.9674 40.1592C55.7037 40.1592 55.4472 40.2458 55.2374 40.4056C52.1815 42.6923 48.608 44.1885 44.8345 44.7614C44.5473 44.807 44.2857 44.9532 44.0962 45.1738C43.9068 45.3944 43.8019 45.6752 43.8003 45.966V58.1453C43.8007 59.2312 44.0921 60.2971 44.6442 61.2322C45.1962 62.1673 45.9888 62.9374 46.9394 63.4623L47.0124 63.4988L55.4442 67.5018C55.607 67.5818 55.786 67.6234 55.9674 67.6234C56.1488 67.6234 56.3278 67.5818 56.4906 67.5018L64.9954 63.4623C65.945 62.9362 66.7368 62.1658 67.2887 61.231C67.8406 60.2962 68.1326 59.2308 68.1345 58.1453V45.966C68.1329 45.6752 68.0281 45.3944 67.8386 45.1738C67.6492 44.9532 67.3875 44.807 67.1003 44.7614ZM65.7011 58.1453C65.7045 58.7853 65.5372 59.4148 65.2164 59.9687C64.8956 60.5226 64.4329 60.9809 63.8761 61.2965L55.9674 65.0562L48.0831 61.3209C47.5216 61.0024 47.0545 60.5406 46.7297 59.9828C46.4048 59.4249 46.2336 58.7908 46.2337 58.1453V46.988C49.7283 46.3067 53.043 44.9062 55.9674 42.8755C58.8919 44.9062 62.2066 46.3067 65.7011 46.988V58.1453Z" fill="#FAFAFA"/>
<path d="M50.7441 55.1197L49.0237 56.8401L52.6738 60.4903C52.902 60.7183 53.2114 60.8465 53.534 60.8465C53.8566 60.8465 54.1661 60.7183 54.3942 60.4903L64.1279 50.7566L62.4075 49.0361L53.534 57.9096L50.7441 55.1197Z" fill="#FAFAFA"/>
</svg>
