<svg width="75" height="75" viewBox="0 0 75 75" fill="none" xmlns="http://www.w3.org/2000/svg">
<path d="M23.5917 14.1583V10.4333H31.0417V14.1583C31.041 16.2677 31.3775 18.3635 32.0382 20.3667H27.3167V22.85H33.0462C33.5979 23.9865 34.2572 25.0675 35.015 26.0783C37.0102 28.7518 38.1998 31.9397 38.4438 35.2667H26.075V37.75H38.4917V40.2333H40.975V36.5083C40.9662 32.2112 39.5729 28.0313 37.0017 24.5883C36.1939 23.512 35.5143 22.3452 34.9765 21.1117C34.7691 20.638 34.5813 20.1494 34.4177 19.6566C33.8255 17.884 33.524 16.0272 33.525 14.1583V1.74167C33.525 1.41236 33.3942 1.09653 33.1613 0.863676C32.9285 0.630818 32.6126 0.5 32.2833 0.5H22.35C22.0207 0.5 21.7048 0.630818 21.472 0.863676C21.2391 1.09653 21.1083 1.41236 21.1083 1.74167V14.1583C21.1081 15.3261 20.9904 16.4908 20.7571 17.635L23.1903 18.1317C23.4569 16.824 23.5914 15.4929 23.5917 14.1583ZM23.5917 2.98333H31.0417V7.95H23.5917V2.98333Z" fill="#FAFAFA"/>
<path d="M57.1167 42.7168H29.8C29.6283 42.7168 29.4584 42.7524 29.3011 42.8215C29.1439 42.8905 29.0026 42.9913 28.8864 43.1177C28.7701 43.2441 28.6813 43.3932 28.6256 43.5557C28.5698 43.7181 28.5484 43.8904 28.5627 44.0615L31.046 73.8615C31.0719 74.1719 31.2134 74.4612 31.4426 74.6722C31.6718 74.8831 31.9719 75.0001 32.2834 75.0001H54.6334C54.9448 75.0001 55.2449 74.8831 55.474 74.6722C55.7032 74.4613 55.8448 74.172 55.8707 73.8617L58.354 44.0617C58.3683 43.8905 58.3469 43.7183 58.2912 43.5558C58.2355 43.3933 58.1467 43.2442 58.0304 43.1178C57.9141 42.9914 57.7729 42.8905 57.6156 42.8215C57.4583 42.7524 57.2884 42.7168 57.1167 42.7168ZM55.7673 45.2001L55.1465 52.6501H31.7702L31.1494 45.2001H55.7673ZM53.4909 72.5168H33.4258L31.9771 55.1335H54.9396L53.4909 72.5168Z" fill="#FAFAFA"/>
<path d="M69.5333 20.3667H49.6667C48.3499 20.3682 47.0875 20.8919 46.1564 21.823C45.2252 22.7541 44.7015 24.0166 44.7 25.3334V36.8793C44.7 38.0193 44.7368 39.1744 44.8087 40.3124L47.2869 40.1544C47.2176 39.0688 47.1826 37.9669 47.1826 36.8795V30.3H59.5992C59.9284 30.3004 60.244 30.4313 60.4768 30.6641C60.7096 30.8969 60.8405 31.2125 60.8409 31.5417V37.75C60.8409 38.738 61.2334 39.6854 61.9319 40.384C62.6305 41.0826 63.578 41.475 64.5659 41.475C65.5538 41.475 66.5013 41.0826 67.1999 40.384C67.8985 39.6854 68.2909 38.738 68.2909 37.75V31.5417C68.2913 31.2125 68.4222 30.8969 68.655 30.6641C68.8878 30.4313 69.2034 30.3004 69.5326 30.3H72.0159V36.8793C72.0151 41.4673 71.4037 46.0349 70.198 50.4616C68.9332 55.1006 68.2921 59.8874 68.2917 64.6958V72.5167H58.3583V75H69.5333C69.8627 75 70.1785 74.8692 70.4113 74.6364C70.6442 74.4035 70.775 74.0877 70.775 73.7584V64.6958C70.7753 60.1076 71.3869 55.54 72.5937 51.1135C73.8577 46.4743 74.4988 41.6876 74.5 36.8793V25.3334C74.4985 24.0166 73.9748 22.7541 73.0437 21.823C72.1126 20.8919 70.8501 20.3682 69.5333 20.3667ZM65.8083 31.5417V37.75C65.8083 38.0793 65.6775 38.3952 65.4447 38.628C65.2118 38.8609 64.896 38.9917 64.5667 38.9917C64.2374 38.9917 63.9215 38.8609 63.6887 38.628C63.4558 38.3952 63.325 38.0793 63.325 37.75V31.5417C63.3239 30.5541 62.931 29.6073 62.2327 28.909C61.5344 28.2107 60.5876 27.8179 59.6 27.8167H47.1833V25.3334C47.1841 24.675 47.446 24.0438 47.9116 23.5782C48.3771 23.1127 49.0083 22.8508 49.6667 22.85H69.5333C70.1917 22.8508 70.8229 23.1127 71.2885 23.5782C71.754 24.0438 72.0159 24.675 72.0167 25.3334V27.8167H69.5333C68.5458 27.8179 67.599 28.2107 66.9006 28.909C66.2023 29.6073 65.8095 30.5541 65.8083 31.5417Z" fill="#FAFAFA"/>
<path d="M44.7 58.8579H37.25C36.9207 58.8579 36.6048 58.9887 36.372 59.2216C36.1391 59.4544 36.0083 59.7703 36.0083 60.0996V67.5496C36.0083 67.8789 36.1391 68.1947 36.372 68.4276C36.6048 68.6604 36.9207 68.7912 37.25 68.7912H44.7C45.0293 68.7912 45.3451 68.6604 45.578 68.4276C45.8108 68.1947 45.9416 67.8789 45.9416 67.5496V60.0996C45.9416 59.7703 45.8108 59.4544 45.578 59.2216C45.3451 58.9887 45.0293 58.8579 44.7 58.8579ZM43.4583 66.3079H38.4916V61.3412H43.4583V66.3079Z" fill="#FAFAFA"/>
<path d="M17.3833 67.5497H16.1417V58.2864C18.6604 57.4907 20.8605 55.9139 22.4232 53.7843C23.9859 51.6546 24.83 49.0828 24.8333 46.4414V44.6891C24.833 43.5666 24.7548 42.4455 24.5994 41.3338C24.4435 40.2216 24.2105 39.1216 23.9021 38.0418C23.0801 35.1786 22.8595 32.1764 23.2542 29.2238C23.3391 28.5933 23.45 27.9686 23.5836 27.367L24.8035 21.8773C24.8439 21.6958 24.8429 21.5076 24.8008 21.3266C24.7586 21.1455 24.6763 20.9762 24.56 20.8312C24.4437 20.6861 24.2963 20.5691 24.1287 20.4886C23.9611 20.4082 23.7776 20.3664 23.5917 20.3664H14.1725L9.20587 15.3997L14.5363 10.0694C14.71 9.89574 14.8283 9.67449 14.8762 9.43362C14.9241 9.19276 14.8995 8.94309 14.8055 8.7162C14.7115 8.48931 14.5524 8.29539 14.3482 8.15895C14.144 8.02252 13.9039 7.9497 13.6583 7.94971H1.24167C0.912356 7.94971 0.596533 8.08053 0.363676 8.31338C0.130818 8.54624 0 8.86206 0 9.19137V21.608C0 21.6135 0.00108637 21.6186 0.00124158 21.6236C0.00198459 21.673 0.00566451 21.7223 0.0122615 21.7713C0.0145897 21.7889 0.0176939 21.8062 0.020798 21.8236C0.0239022 21.841 0.0256095 21.8592 0.0294897 21.8769L1.24943 27.3663C1.38306 27.968 1.49388 28.5924 1.57816 29.2195C1.70297 30.1673 1.76581 31.1223 1.76627 32.0784C1.76649 34.0956 1.48544 36.1029 0.93125 38.0424C0.314048 40.2041 0.000626185 42.4411 0 44.6891V46.4414C0.00332305 49.0828 0.847464 51.6546 2.41015 53.7843C3.97283 55.9139 6.1729 57.4907 8.69167 58.2864V67.5497H7.45C5.80402 67.5516 4.22598 68.2062 3.06209 69.3701C1.8982 70.534 1.24352 72.1121 1.24167 73.758C1.24167 74.0873 1.37248 74.4032 1.60534 74.636C1.8382 74.8689 2.15402 74.9997 2.48333 74.9997H22.35C22.6793 74.9997 22.9951 74.8689 23.228 74.636C23.4609 74.4032 23.5917 74.0873 23.5917 73.758C23.5898 72.1121 22.9351 70.534 21.7713 69.3701C20.6074 68.2062 19.0293 67.5516 17.3833 67.5497ZM20.9623 27.8164H3.87105C3.81145 27.4828 2.78956 22.8497 2.78956 22.8497H22.0438C22.0438 22.8497 21.022 27.4827 20.9623 27.8164ZM10.6608 20.3664H4.23921L7.45 17.1556L10.6608 20.3664ZM2.48333 10.433H10.6608L2.48333 18.6105V10.433ZM2.48333 46.4414V44.6891C2.48373 42.6717 2.76487 40.6642 3.31867 38.7243C3.9365 36.563 4.24993 34.3262 4.24992 32.0784C4.24992 31.4886 4.22555 30.894 4.18193 30.2997H20.6495C20.437 33.137 20.73 35.9895 21.5148 38.7244C21.7916 39.6932 22.0005 40.6801 22.1402 41.6779C22.2796 42.6756 22.3497 43.6817 22.35 44.6891V46.4414C22.35 49.0759 21.3035 51.6024 19.4406 53.4653C17.5777 55.3282 15.0512 56.3747 12.4167 56.3747C9.78218 56.3747 7.2556 55.3282 5.39274 53.4653C3.52988 51.6024 2.48333 49.0759 2.48333 46.4414ZM11.175 58.796C11.5835 58.8368 11.9974 58.8575 12.4167 58.858C12.8359 58.8586 13.2498 58.8379 13.6583 58.796V67.5497H11.175V58.796ZM3.93779 72.5164C4.1954 71.7906 4.67125 71.1623 5.30007 70.7177C5.92889 70.2731 6.67987 70.0339 7.45 70.033H17.3833C18.1535 70.0339 18.9044 70.2731 19.5333 70.7177C20.1621 71.1623 20.6379 71.7906 20.8955 72.5164H3.93779Z" fill="#FAFAFA"/>
<path d="M17.6846 50.4679C19.0817 49.0708 19.8666 47.1758 19.8666 45.2C19.8666 43.2241 19.0817 41.3292 17.6846 39.9321C17.5693 39.8168 17.4324 39.7253 17.2818 39.6629C17.1311 39.6005 16.9696 39.5684 16.8066 39.5684C16.6435 39.5684 16.482 39.6005 16.3314 39.6629C16.1807 39.7253 16.0439 39.8168 15.9286 39.9321L7.14873 48.7119C7.03343 48.8272 6.94196 48.9641 6.87956 49.1147C6.81715 49.2654 6.78503 49.4268 6.78503 49.5899C6.78503 49.753 6.81715 49.9144 6.87956 50.0651C6.94196 50.2157 7.03343 50.3526 7.14873 50.4679C8.54588 51.865 10.4408 52.65 12.4167 52.65C14.3925 52.65 16.2874 51.865 17.6846 50.4679ZM16.6965 42.6765C17.2551 43.6254 17.4827 44.7331 17.3435 45.8254C17.2044 46.9177 16.7064 47.9329 15.9278 48.7115C15.1491 49.4902 14.1339 49.9882 13.0416 50.1273C11.9493 50.2665 10.8416 50.0389 9.89266 49.4803L16.6965 42.6765Z" fill="#FAFAFA"/>
<path d="M7.45001 36.5083H9.93335V38.9916H7.45001V36.5083Z" fill="#FAFAFA"/>
<path d="M13.6584 32.7832H16.1417V35.2665H13.6584V32.7832Z" fill="#FAFAFA"/>
<path d="M52.15 34.0249H54.6333V36.5082H52.15V34.0249Z" fill="#FAFAFA"/>
<path d="M62.0833 47.6836H64.5666V50.1669H62.0833V47.6836Z" fill="#FAFAFA"/>
<path d="M59.6 57.6167H62.0834V60.1H59.6V57.6167Z" fill="#FAFAFA"/>
</svg>
