<svg width="74" height="74" viewBox="0 0 74 74" fill="none" xmlns="http://www.w3.org/2000/svg">
<path d="M72.8065 59.6777H71.6129V52.5164C71.6112 51.0368 71.1513 49.5942 70.2964 48.3866C69.4415 47.1791 68.2336 46.266 66.8387 45.7728V35.8067C66.8359 33.2752 65.829 30.8482 64.0389 29.0581C62.2489 27.268 59.8218 26.2611 57.2903 26.2583H16.7097C14.1782 26.2611 11.7511 27.268 9.96109 29.0581C8.17103 30.8482 7.16413 33.2752 7.16129 35.8067V45.7728C5.76639 46.266 4.55847 47.1791 3.70358 48.3866C2.84869 49.5942 2.38879 51.0368 2.3871 52.5164V59.6777H1.19355C0.877 59.6777 0.573416 59.8034 0.349582 60.0272C0.125748 60.2511 0 60.5547 0 60.8712V68.0325C0 68.349 0.125748 68.6526 0.349582 68.8765C0.573416 69.1003 0.877 69.226 1.19355 69.226H4.77419V72.8067C4.77419 73.1232 4.89994 73.4268 5.12378 73.6507C5.34761 73.8745 5.65119 74.0002 5.96774 74.0002H15.5161C15.8327 74.0002 16.1363 73.8745 16.3601 73.6507C16.5839 73.4268 16.7097 73.1232 16.7097 72.8067V69.226H57.2903V72.8067C57.2903 73.1232 57.4161 73.4268 57.6399 73.6507C57.8637 73.8745 58.1673 74.0002 58.4839 74.0002H68.0323C68.3488 74.0002 68.6524 73.8745 68.8762 73.6507C69.1001 73.4268 69.2258 73.1232 69.2258 72.8067V69.226H72.8065C73.123 69.226 73.4266 69.1003 73.6504 68.8765C73.8743 68.6526 74 68.349 74 68.0325V60.8712C74 60.5547 73.8743 60.2511 73.6504 60.0272C73.4266 59.8034 73.123 59.6777 72.8065 59.6777ZM9.54839 35.8067C9.55028 33.908 10.3054 32.0876 11.648 30.745C12.9906 29.4024 14.811 28.6473 16.7097 28.6454H57.2903C59.189 28.6473 61.0094 29.4024 62.352 30.745C63.6946 32.0876 64.4497 33.908 64.4516 35.8067V45.3551H59.6774V40.5809C59.6774 39.3147 59.1744 38.1004 58.2791 37.205C57.3838 36.3097 56.1694 35.8067 54.9032 35.8067H42.9677C41.7015 35.8067 40.4872 36.3097 39.5919 37.205C38.6965 38.1004 38.1936 39.3147 38.1936 40.5809V45.3551H35.8065V40.5809C35.8065 39.3147 35.3035 38.1004 34.4081 37.205C33.5128 36.3097 32.2985 35.8067 31.0323 35.8067H19.0968C17.8306 35.8067 16.6162 36.3097 15.7209 37.205C14.8256 38.1004 14.3226 39.3147 14.3226 40.5809V45.3551H9.54839V35.8067ZM57.2903 45.3551H40.5806V40.5809C40.5806 39.9478 40.8321 39.3406 41.2798 38.8929C41.7275 38.4453 42.3346 38.1938 42.9677 38.1938H54.9032C55.5363 38.1938 56.1435 38.4453 56.5912 38.8929C57.0388 39.3406 57.2903 39.9478 57.2903 40.5809V45.3551ZM33.4194 45.3551H16.7097V40.5809C16.7097 39.9478 16.9612 39.3406 17.4088 38.8929C17.8565 38.4453 18.4637 38.1938 19.0968 38.1938H31.0323C31.6654 38.1938 32.2725 38.4453 32.7202 38.8929C33.1679 39.3406 33.4194 39.9478 33.4194 40.5809V45.3551ZM9.54839 47.7422H64.4516C65.7178 47.7422 66.9321 48.2452 67.8275 49.1405C68.7228 50.0358 69.2258 51.2502 69.2258 52.5164V54.9035H4.77419V52.5164C4.77419 51.2502 5.27719 50.0358 6.17252 49.1405C7.06786 48.2452 8.28219 47.7422 9.54839 47.7422ZM4.77419 57.2906H69.2258V59.6777H4.77419V57.2906ZM14.3226 71.6131H7.16129V69.226H14.3226V71.6131ZM66.8387 71.6131H59.6774V69.226H66.8387V71.6131ZM71.6129 66.8389H2.3871V62.0648H71.6129V66.8389Z" fill="#FAFAFA"/>
<path d="M17.9032 23.871H56.0968C56.4133 23.871 56.7169 23.7452 56.9407 23.5214C57.1646 23.2976 57.2903 22.994 57.2903 22.6774V1.19355C57.2903 0.877 57.1646 0.573416 56.9407 0.349582C56.7169 0.125748 56.4133 0 56.0968 0H17.9032C17.5867 0 17.2831 0.125748 17.0592 0.349582C16.8354 0.573416 16.7097 0.877 16.7097 1.19355V22.6774C16.7097 22.994 16.8354 23.2976 17.0592 23.5214C17.2831 23.7452 17.5867 23.871 17.9032 23.871ZM19.0968 2.3871H54.9032V21.4839H19.0968V2.3871Z" fill="#FAFAFA"/>
<path d="M34.8514 8.32393V19.5239H32.2594V10.4039H30.0194V8.32393H34.8514ZM44.461 13.6359C45.0157 13.9133 45.437 14.2759 45.725 14.7239C46.0237 15.1719 46.173 15.6893 46.173 16.2759C46.173 16.9693 45.9757 17.5773 45.581 18.0999C45.1863 18.6119 44.6317 19.0119 43.917 19.2999C43.2023 19.5773 42.3757 19.7159 41.437 19.7159C40.4983 19.7159 39.6717 19.5773 38.957 19.2999C38.253 19.0119 37.7037 18.6119 37.309 18.0999C36.925 17.5773 36.733 16.9693 36.733 16.2759C36.733 15.6893 36.877 15.1719 37.165 14.7239C37.4637 14.2759 37.885 13.9133 38.429 13.6359C38.013 13.3799 37.693 13.0599 37.469 12.6759C37.245 12.2813 37.133 11.8333 37.133 11.3319C37.133 10.6813 37.3143 10.1159 37.677 9.63593C38.0397 9.15593 38.5463 8.78793 39.197 8.53193C39.8477 8.26526 40.5943 8.13193 41.437 8.13193C42.2903 8.13193 43.0423 8.26526 43.693 8.53193C44.3543 8.78793 44.8663 9.15593 45.229 9.63593C45.5917 10.1159 45.773 10.6813 45.773 11.3319C45.773 11.8333 45.661 12.2813 45.437 12.6759C45.213 13.0599 44.8877 13.3799 44.461 13.6359ZM41.437 10.0359C40.9143 10.0359 40.493 10.1639 40.173 10.4199C39.8637 10.6653 39.709 11.0066 39.709 11.4439C39.709 11.8706 39.8637 12.2066 40.173 12.4519C40.4823 12.6973 40.9037 12.8199 41.437 12.8199C41.9703 12.8199 42.397 12.6973 42.717 12.4519C43.037 12.2066 43.197 11.8706 43.197 11.4439C43.197 11.0066 43.037 10.6653 42.717 10.4199C42.397 10.1639 41.9703 10.0359 41.437 10.0359ZM41.437 17.8119C42.0877 17.8119 42.5997 17.6679 42.973 17.3799C43.357 17.0813 43.549 16.6866 43.549 16.1959C43.549 15.7053 43.357 15.3159 42.973 15.0279C42.5997 14.7399 42.0877 14.5959 41.437 14.5959C40.797 14.5959 40.2903 14.7399 39.917 15.0279C39.5437 15.3159 39.357 15.7053 39.357 16.1959C39.357 16.6973 39.5437 17.0919 39.917 17.3799C40.2903 17.6679 40.797 17.8119 41.437 17.8119ZM42.1404 34.8999H39.3564V37.6199H37.2924V34.8999H34.5244V32.9479H37.2924V30.2279H39.3564V32.9479H42.1404V34.8999Z" fill="white"/>
</svg>
