<svg width="77" height="74" viewBox="0 0 77 74" fill="none" xmlns="http://www.w3.org/2000/svg">
<path d="M75.8856 39.3573C75.1814 38.5261 74.2215 37.974 73.1699 37.777L71.2169 31.112C70.7119 29.3886 69.1051 28.1851 67.3097 28.1851H20.0385C19.4155 28.1851 18.9105 28.6901 18.9105 29.313C18.9105 29.9359 19.4155 30.4409 20.0385 30.4409H67.3097C68.1104 30.4409 68.8269 30.9779 69.0522 31.7465L71.122 38.8102L67.4651 50.2641C66.794 49.0086 65.4701 48.1525 63.95 48.1525H41.3417C40.2233 48.1525 39.211 48.6161 38.4868 49.361C37.7627 48.6161 36.7504 48.1525 35.6319 48.1525H13.05C11.5298 48.1525 10.2058 49.0087 9.53474 50.2642L5.87779 38.8103L7.9478 31.7467C8.17308 30.978 8.88955 30.4411 9.69009 30.4411H14.7913C15.4142 30.4411 15.9192 29.9361 15.9192 29.3132C15.9192 28.6902 15.4142 28.1852 14.7913 28.1852H9.69024C7.89486 28.1852 6.28806 29.3888 5.78304 31.1123L3.82989 37.7773C2.7782 37.9744 1.81839 38.5264 1.11425 39.3577C0.219566 40.4138 -0.163183 41.8027 0.0642106 43.1681L2.663 58.7719C3.31735 62.7006 6.44507 65.6464 10.3028 66.1315V72.0298C10.3028 72.6527 10.8078 73.1577 11.4307 73.1577H15.675C16.1248 73.1577 16.5315 72.8905 16.7101 72.4778L19.4259 66.2021H44.1942C44.8173 66.2021 45.3222 65.6971 45.3222 65.0741C45.3222 64.4512 44.8173 63.9462 44.1942 63.9462H11.4307C8.17489 63.9462 5.4233 61.6142 4.88821 58.4014L2.28942 42.7975C2.17121 42.0874 2.37018 41.3652 2.8355 40.8159C3.12606 40.4729 3.50023 40.2214 3.91562 40.081L9.12071 56.3838C9.2699 56.8513 9.70438 57.1687 10.1953 57.1687H66.805C67.2959 57.1687 67.7302 56.8514 67.8796 56.3838L73.0847 40.081C73.5001 40.2214 73.8742 40.4729 74.1648 40.8159C74.6301 41.365 74.8291 42.0874 74.7109 42.7975L72.1121 58.4014C71.577 61.6142 68.8254 63.9462 65.5695 63.9462H49.4856C48.8626 63.9462 48.3577 64.4512 48.3577 65.0741C48.3577 65.6971 48.8626 66.2021 49.4856 66.2021H56.8069L59.5227 72.4778C59.7014 72.8906 60.1082 73.1577 60.5579 73.1577H64.8021C65.4252 73.1577 65.93 72.6527 65.93 72.0298V66.1949C70.1346 66.0281 73.6399 62.9581 74.337 58.7719L76.9358 43.1681C77.1632 41.8022 76.7806 40.4133 75.8856 39.3573ZM12.5587 66.2018H16.9677L14.934 70.9016H12.5587V66.2018ZM37.3589 54.9124H11.3231V52.1351C11.3231 51.1828 12.0977 50.4081 13.05 50.4081H35.6319C36.5842 50.4081 37.3589 51.1828 37.3589 52.1351V54.9124ZM65.6768 54.9124H39.6148V52.1351C39.6148 51.1828 40.3894 50.4081 41.3416 50.4081H63.95C64.9021 50.4081 65.6768 51.1828 65.6768 52.1351V54.9124ZM63.6741 70.9016H61.2988L59.2651 66.2018H63.6741V70.9016Z" fill="#FAFAFA"/>
<path d="M22.9219 24.4284H54.0517C54.6748 24.4284 55.1797 23.9233 55.1797 23.3004V17.6387C55.1797 17.0158 54.6748 16.5108 54.0517 16.5108C53.4287 16.5108 52.9238 17.0158 52.9238 17.6387V22.1725H24.0499V3.22464H52.9238V12.3972C52.9238 13.0202 53.4287 13.5252 54.0517 13.5252C54.6748 13.5252 55.1797 13.0202 55.1797 12.3972V2.0967C55.1797 1.47377 54.6748 0.96875 54.0517 0.96875H22.9219C22.299 0.96875 21.794 1.47377 21.794 2.0967V23.3004C21.794 23.9233 22.299 24.4284 22.9219 24.4284Z" fill="#FAFAFA"/>
<path d="M27.4372 5.48535C26.8143 5.48535 26.3092 5.99037 26.3092 6.6133V18.7837C26.3092 19.4066 26.8143 19.9116 27.4372 19.9116H49.5366C50.1597 19.9116 50.6646 19.4066 50.6646 18.7837V6.6133C50.6646 5.99037 50.1597 5.48535 49.5366 5.48535H27.4372ZM48.4087 17.6557H28.5651V16.4087L32.3591 12.2147L36.0109 15.1816C36.3908 15.4904 36.9268 15.5187 37.3372 15.2516L40.2624 13.3485L48.4088 16.6908V17.6557H48.4087ZM48.4087 14.2523L40.5711 11.0368C40.2285 10.8963 39.8383 10.933 39.5279 11.1349L36.7957 12.9125L32.9512 9.78914C32.4859 9.41105 31.8058 9.46324 31.4035 9.90795L28.565 13.0457V7.74124H48.4085V14.2523H48.4087Z" fill="#FAFAFA"/>
<path d="M20.0542 36.6376C20.6759 36.6376 21.1799 36.1336 21.1799 35.5119C21.1799 34.8902 20.6759 34.3862 20.0542 34.3862C19.4326 34.3862 18.9286 34.8902 18.9286 35.5119C18.9286 36.1336 19.4326 36.6376 20.0542 36.6376Z" fill="#FAFAFA"/>
<path d="M32.2406 36.6376C32.8623 36.6376 33.3662 36.1336 33.3662 35.5119C33.3662 34.8902 32.8623 34.3862 32.2406 34.3862C31.6189 34.3862 31.1149 34.8902 31.1149 35.5119C31.1149 36.1336 31.6189 36.6376 32.2406 36.6376Z" fill="#FAFAFA"/>
<path d="M26.1467 44.2284C26.7683 44.2284 27.2723 43.7244 27.2723 43.1027C27.2723 42.481 26.7683 41.9771 26.1467 41.9771C25.525 41.9771 25.021 42.481 25.021 43.1027C25.021 43.7244 25.525 44.2284 26.1467 44.2284Z" fill="#FAFAFA"/>
<path d="M38.333 44.2294C38.9547 44.2294 39.4586 43.7254 39.4586 43.1037C39.4586 42.482 38.9547 41.978 38.333 41.978C37.7113 41.978 37.2073 42.482 37.2073 43.1037C37.2073 43.7254 37.7113 44.2294 38.333 44.2294Z" fill="#FAFAFA"/>
<path d="M44.7338 36.6371C45.3555 36.6371 45.8595 36.1331 45.8595 35.5114C45.8595 34.8897 45.3555 34.3857 44.7338 34.3857C44.1121 34.3857 43.6082 34.8897 43.6082 35.5114C43.6082 36.1331 44.1121 36.6371 44.7338 36.6371Z" fill="#FAFAFA"/>
<path d="M50.815 44.2299C51.4367 44.2299 51.9406 43.7259 51.9406 43.1042C51.9406 42.4825 51.4367 41.9785 50.815 41.9785C50.1933 41.9785 49.6893 42.4825 49.6893 43.1042C49.6893 43.7259 50.1933 44.2299 50.815 44.2299Z" fill="#FAFAFA"/>
<path d="M56.9223 36.6381C57.544 36.6381 58.0479 36.1341 58.0479 35.5124C58.0479 34.8907 57.544 34.3867 56.9223 34.3867C56.3006 34.3867 55.7966 34.8907 55.7966 35.5124C55.7966 36.1341 56.3006 36.6381 56.9223 36.6381Z" fill="#FAFAFA"/>
</svg>
